<?xml version="1.0" encoding="utf-8" standalone="no"?>
<!DOCTYPE svg PUBLIC "-//W3C//DTD SVG 1.1//EN"
  "http://www.w3.org/Graphics/SVG/1.1/DTD/svg11.dtd">
<svg xmlns:xlink="http://www.w3.org/1999/xlink" width="518.4pt" height="198pt" viewBox="0 0 518.4 198" xmlns="http://www.w3.org/2000/svg" version="1.1">
 <metadata>
  <rdf:RDF xmlns:dc="http://purl.org/dc/elements/1.1/" xmlns:cc="http://creativecommons.org/ns#" xmlns:rdf="http://www.w3.org/1999/02/22-rdf-syntax-ns#">
   <cc:Work>
    <dc:type rdf:resource="http://purl.org/dc/dcmitype/StillImage"/>
    <dc:date>2026-09-26T19:24:49.287048</dc:date>
    <dc:format>image/svg+xml</dc:format>
    <dc:creator>
     <cc:Agent>
      <dc:title>Matplotlib v3.10.9, https://matplotlib.org/</dc:title>
     </cc:Agent>
    </dc:creator>
   </cc:Work>
  </rdf:RDF>
 </metadata>
 <defs>
  <style type="text/css">*{stroke-linejoin: round; stroke-linecap: butt}</style>
 </defs>
 <g id="figure_1">
  <g id="patch_1">
   <path d="M 0 198 
L 518.4 198 
L 518.4 0 
L 0 0 
z
" style="fill: #ffffff"/>
  </g>
  <g id="axes_1">
   <g id="patch_2">
    <path d="M 5.634783 24.244898 
L 512.765217 24.244898 
L 512.765217 5.387755 
L 5.634783 5.387755 
z
" clip-path="url(#pc0e53fe680)" style="fill: #4d4d4d; opacity: 0.13"/>
   </g>
   <g id="line2d_1">
    <path d="M 501.495652 165.673469 
L 512.201739 165.673469 
L 512.201739 79.469388 
" clip-path="url(#pc0e53fe680)" style="fill: none; stroke-dasharray: 2.4,1.6; stroke-dashoffset: 0; stroke: #999999; stroke-width: 0.8"/>
   </g>
   <g id="patch_3">
    <path d="M 512.201739 79.469388 
Q 504.594783 79.469388 497.882253 79.469388 
" clip-path="url(#pc0e53fe680)" style="fill: none; stroke: #999999; stroke-width: 0.8; stroke-linecap: round"/>
    <path d="M 500.282253 80.669388 
L 497.882253 79.469388 
L 500.282253 78.269388 
z
" clip-path="url(#pc0e53fe680)" style="fill: #999999; stroke: #999999; stroke-width: 0.8; stroke-linecap: round"/>
   </g>
   <g id="patch_4">
    <path d="M 11.269565 101.020408 
L 78.886957 101.020408 
Q 81.704348 101.020408 81.704348 98.326531 
L 81.704348 60.612245 
Q 81.704348 57.918367 78.886957 57.918367 
L 11.269565 57.918367 
Q 8.452174 57.918367 8.452174 60.612245 
L 8.452174 98.326531 
Q 8.452174 101.020408 11.269565 101.020408 
z
" clip-path="url(#pc0e53fe680)" style="fill: #ffffff; stroke: #4d4d4d; stroke-width: 0.9; stroke-linejoin: miter"/>
   </g>
   <g id="patch_5">
    <path d="M 94.10087 101.020408 
L 161.718261 101.020408 
Q 164.535652 101.020408 164.535652 98.326531 
L 164.535652 60.612245 
Q 164.535652 57.918367 161.718261 57.918367 
L 94.10087 57.918367 
Q 91.283478 57.918367 91.283478 60.612245 
L 91.283478 98.326531 
Q 91.283478 101.020408 94.10087 101.020408 
z
" clip-path="url(#pc0e53fe680)" style="fill: #ffffff; stroke: #4d4d4d; stroke-width: 0.9; stroke-linejoin: miter"/>
   </g>
   <g id="patch_6">
    <path d="M 176.932174 101.020408 
L 244.549565 101.020408 
Q 247.366957 101.020408 247.366957 98.326531 
L 247.366957 60.612245 
Q 247.366957 57.918367 244.549565 57.918367 
L 176.932174 57.918367 
Q 174.114783 57.918367 174.114783 60.612245 
L 174.114783 98.326531 
Q 174.114783 101.020408 176.932174 101.020408 
z
" clip-path="url(#pc0e53fe680)" style="fill: #ffffff; stroke: #4d4d4d; stroke-width: 0.9; stroke-linejoin: miter"/>
   </g>
   <g id="patch_7">
    <path d="M 259.763478 101.020408 
L 327.38087 101.020408 
Q 330.198261 101.020408 330.198261 98.326531 
L 330.198261 60.612245 
Q 330.198261 57.918367 327.38087 57.918367 
L 259.763478 57.918367 
Q 256.946087 57.918367 256.946087 60.612245 
L 256.946087 98.326531 
Q 256.946087 101.020408 259.763478 101.020408 
z
" clip-path="url(#pc0e53fe680)" style="fill: #ffffff; stroke: #4d4d4d; stroke-width: 0.9; stroke-linejoin: miter"/>
   </g>
   <g id="patch_8">
    <path d="M 342.594783 101.020408 
L 410.212174 101.020408 
Q 413.029565 101.020408 413.029565 98.326531 
L 413.029565 60.612245 
Q 413.029565 57.918367 410.212174 57.918367 
L 342.594783 57.918367 
Q 339.777391 57.918367 339.777391 60.612245 
L 339.777391 98.326531 
Q 339.777391 101.020408 342.594783 101.020408 
z
" clip-path="url(#pc0e53fe680)" style="fill: #ffffff; stroke: #4d4d4d; stroke-width: 0.9; stroke-linejoin: miter"/>
   </g>
   <g id="patch_9">
    <path d="M 425.426087 101.020408 
L 493.043478 101.020408 
Q 495.86087 101.020408 495.86087 98.326531 
L 495.86087 60.612245 
Q 495.86087 57.918367 493.043478 57.918367 
L 425.426087 57.918367 
Q 422.608696 57.918367 422.608696 60.612245 
L 422.608696 98.326531 
Q 422.608696 101.020408 425.426087 101.020408 
z
" clip-path="url(#pc0e53fe680)" style="fill: #ffffff; stroke: #4d4d4d; stroke-width: 0.9; stroke-linejoin: miter"/>
   </g>
   <g id="patch_10">
    <path d="M 10.424348 142.77551 
L 85.366957 142.77551 
Q 87.33913 142.77551 87.33913 140.889796 
L 87.33913 128.497959 
Q 87.33913 126.612245 85.366957 126.612245 
L 10.424348 126.612245 
Q 8.452174 126.612245 8.452174 128.497959 
L 8.452174 140.889796 
Q 8.452174 142.77551 10.424348 142.77551 
z
" clip-path="url(#pc0e53fe680)" style="fill: #d55e00; opacity: 0.1; stroke: #d55e00; stroke-width: 0.7; stroke-linejoin: miter"/>
   </g>
   <g id="patch_11">
    <path d="M 10.424348 164.326531 
L 85.366957 164.326531 
Q 87.33913 164.326531 87.33913 162.440816 
L 87.33913 150.04898 
Q 87.33913 148.163265 85.366957 148.163265 
L 10.424348 148.163265 
Q 8.452174 148.163265 8.452174 150.04898 
L 8.452174 162.440816 
Q 8.452174 164.326531 10.424348 164.326531 
z
" clip-path="url(#pc0e53fe680)" style="fill: #d55e00; opacity: 0.1; stroke: #d55e00; stroke-width: 0.7; stroke-linejoin: miter"/>
   </g>
   <g id="patch_12">
    <path d="M 10.424348 185.877551 
L 85.366957 185.877551 
Q 87.33913 185.877551 87.33913 183.991837 
L 87.33913 171.6 
Q 87.33913 169.714286 85.366957 169.714286 
L 10.424348 169.714286 
Q 8.452174 169.714286 8.452174 171.6 
L 8.452174 183.991837 
Q 8.452174 185.877551 10.424348 185.877551 
z
" clip-path="url(#pc0e53fe680)" style="fill: #d55e00; opacity: 0.1; stroke: #d55e00; stroke-width: 0.7; stroke-linejoin: miter"/>
   </g>
   <g id="patch_13">
    <path d="M 100.017391 137.387755 
L 100.017391 191.265306 
L 135.234783 170.522449 
L 135.234783 158.130612 
z
" clip-path="url(#pc0e53fe680)" style="fill: #e69f00; opacity: 0.3; stroke: #b87a00; stroke-width: 0.8; stroke-linejoin: miter"/>
   </g>
   <g id="patch_14">
    <path d="M 171.86087 181.836735 
L 498.678261 181.836735 
Q 501.495652 181.836735 501.495652 179.142857 
L 501.495652 152.204082 
Q 501.495652 149.510204 498.678261 149.510204 
L 171.86087 149.510204 
Q 169.043478 149.510204 169.043478 152.204082 
L 169.043478 179.142857 
Q 169.043478 181.836735 171.86087 181.836735 
z
" clip-path="url(#pc0e53fe680)" style="fill: #4d4d4d; opacity: 0.08; stroke: #4d4d4d; stroke-width: 0.8; stroke-linejoin: miter"/>
   </g>
   <g id="text_1">
    <text style="font-weight: 700; font-size: 6.5px; font-family: 'Arial', 'Helvetica', 'DejaVu Sans', sans-serif; text-anchor: middle; fill: #4d4d4d" x="259.2" y="16.458592" transform="rotate(-0 259.2 16.458592)">Rule: every quantitative claim traces to an archived script output, not to memory</text>
   </g>
   <g id="text_2">
    <text style="font-weight: 700; font-size: 5.6px; font-family: 'Arial', 'Helvetica', 'DejaVu Sans', sans-serif; text-anchor: middle; fill: #262626" x="45.078261" y="94.353651" transform="rotate(-0 45.078261 94.353651)">Pre-registration</text>
   </g>
   <g id="text_3">
    <text style="font-size: 4.8px; font-family: 'Arial', 'Helvetica', 'DejaVu Sans', sans-serif; text-anchor: middle; fill: #4d4d4d" x="45.078261" y="108.159689" transform="rotate(-0 45.078261 108.159689)">hypotheses, clause list,</text>
   </g>
   <g id="text_4">
    <text style="font-size: 4.8px; font-family: 'Arial', 'Helvetica', 'DejaVu Sans', sans-serif; text-anchor: middle; fill: #4d4d4d" x="45.078261" y="116.000059" transform="rotate(-0 45.078261 116.000059)">decision lines, tolerances,</text>
   </g>
   <g id="text_5">
    <text style="font-size: 4.8px; font-family: 'Arial', 'Helvetica', 'DejaVu Sans', sans-serif; text-anchor: middle; fill: #4d4d4d" x="45.078261" y="123.841554" transform="rotate(-0 45.078261 123.841554)">seeds fixed before data open</text>
   </g>
   <g id="text_6">
    <text style="font-weight: 700; font-size: 5.6px; font-family: 'Arial', 'Helvetica', 'DejaVu Sans', sans-serif; text-anchor: middle; fill: #262626" x="127.909565" y="94.390401" transform="rotate(-0 127.909565 94.390401)">Decision table</text>
   </g>
   <g id="text_7">
    <text style="font-size: 4.8px; font-family: 'Arial', 'Helvetica', 'DejaVu Sans', sans-serif; text-anchor: middle; fill: #4d4d4d" x="127.909565" y="108.187814" transform="rotate(-0 127.909565 108.187814)">thresholds frozen before</text>
   </g>
   <g id="text_8">
    <text style="font-size: 4.8px; font-family: 'Arial', 'Helvetica', 'DejaVu Sans', sans-serif; text-anchor: middle; fill: #4d4d4d" x="127.909565" y="115.971934" transform="rotate(-0 127.909565 115.971934)">scoring; never edited</text>
   </g>
   <g id="text_9">
    <text style="font-size: 4.8px; font-family: 'Arial', 'Helvetica', 'DejaVu Sans', sans-serif; text-anchor: middle; fill: #4d4d4d" x="127.909565" y="123.812304" transform="rotate(-0 127.909565 123.812304)">afterwards</text>
   </g>
   <g id="text_10">
    <text style="font-weight: 700; font-size: 5.6px; font-family: 'Arial', 'Helvetica', 'DejaVu Sans', sans-serif; text-anchor: middle; fill: #262626" x="210.74087" y="94.387776" transform="rotate(-0 210.74087 94.387776)">Scoring script</text>
   </g>
   <g id="text_11">
    <text style="font-size: 4.8px; font-family: 'Arial', 'Helvetica', 'DejaVu Sans', sans-serif; text-anchor: middle; fill: #4d4d4d" x="210.74087" y="108.187814" transform="rotate(-0 210.74087 108.187814)">fixed seed</text>
   </g>
   <g id="text_12">
    <text style="font-size: 4.8px; font-family: 'Arial', 'Helvetica', 'DejaVu Sans', sans-serif; text-anchor: middle; fill: #4d4d4d" x="210.74087" y="116.000059" transform="rotate(-0 210.74087 116.000059)">SEED = 20260815</text>
   </g>
   <g id="text_13">
    <text style="font-size: 4.8px; font-family: 'Arial', 'Helvetica', 'DejaVu Sans', sans-serif; text-anchor: middle; fill: #4d4d4d" x="210.74087" y="123.819429" transform="rotate(-0 210.74087 123.819429)">bootstrap x2000</text>
   </g>
   <g id="text_14">
    <text style="font-weight: 700; font-size: 5.6px; font-family: 'Arial', 'Helvetica', 'DejaVu Sans', sans-serif; text-anchor: middle; fill: #262626" x="293.572174" y="94.390401" transform="rotate(-0 293.572174 94.390401)">Verdict card</text>
   </g>
   <g id="text_15">
    <text style="font-size: 4.8px; font-family: 'Arial', 'Helvetica', 'DejaVu Sans', sans-serif; text-anchor: middle; fill: #4d4d4d" x="293.572174" y="108.187814" transform="rotate(-0 293.572174 108.187814)">frozen at first execution;</text>
   </g>
   <g id="text_16">
    <text style="font-size: 4.8px; font-family: 'Arial', 'Helvetica', 'DejaVu Sans', sans-serif; text-anchor: middle; fill: #4d4d4d" x="293.572174" y="116.000059" transform="rotate(-0 293.572174 116.000059)">verdicts never move</text>
   </g>
   <g id="text_17">
    <text style="font-weight: 700; font-size: 5.6px; font-family: 'Arial', 'Helvetica', 'DejaVu Sans', sans-serif; text-anchor: middle; fill: #262626" x="376.403478" y="94.390401" transform="rotate(-0 376.403478 94.390401)">Errata</text>
   </g>
   <g id="text_18">
    <text style="font-size: 4.8px; font-family: 'Arial', 'Helvetica', 'DejaVu Sans', sans-serif; text-anchor: middle; fill: #4d4d4d" x="376.403478" y="108.187814" transform="rotate(-0 376.403478 108.187814)">corrections appended as</text>
   </g>
   <g id="text_19">
    <text style="font-size: 4.8px; font-family: 'Arial', 'Helvetica', 'DejaVu Sans', sans-serif; text-anchor: middle; fill: #4d4d4d" x="376.403478" y="116.000059" transform="rotate(-0 376.403478 116.000059)">44b / 47b / 49b;</text>
   </g>
   <g id="text_20">
    <text style="font-size: 4.8px; font-family: 'Arial', 'Helvetica', 'DejaVu Sans', sans-serif; text-anchor: middle; fill: #4d4d4d" x="376.403478" y="123.812304" transform="rotate(-0 376.403478 123.812304)">never overwrite</text>
   </g>
   <g id="text_21">
    <text style="font-weight: 700; font-size: 5.6px; font-family: 'Arial', 'Helvetica', 'DejaVu Sans', sans-serif; text-anchor: middle; fill: #262626" x="459.234783" y="94.390401" transform="rotate(-0 459.234783 94.390401)">Cloud re-execution</text>
   </g>
   <g id="text_22">
    <text style="font-size: 4.8px; font-family: 'Arial', 'Helvetica', 'DejaVu Sans', sans-serif; text-anchor: middle; fill: #4d4d4d" x="459.234783" y="108.187814" transform="rotate(-0 459.234783 108.187814)">independent environment</text>
   </g>
   <g id="text_23">
    <text style="font-size: 4.8px; font-family: 'Arial', 'Helvetica', 'DejaVu Sans', sans-serif; text-anchor: middle; fill: #4d4d4d" x="459.234783" y="116.029309" transform="rotate(-0 459.234783 116.029309)">from raw public data;</text>
   </g>
   <g id="text_24">
    <text style="font-size: 4.8px; font-family: 'Arial', 'Helvetica', 'DejaVu Sans', sans-serif; text-anchor: middle; fill: #4d4d4d" x="459.234783" y="123.812304" transform="rotate(-0 459.234783 123.812304)">bit-identical check</text>
   </g>
   <g id="patch_15">
    <path d="M 81.704348 79.469388 
Q 86.493913 79.469388 89.941837 79.469388 
" clip-path="url(#pc0e53fe680)" style="fill: none; stroke: #4d4d4d; stroke-width: 1.2; stroke-linecap: round"/>
    <path d="M 86.741837 77.869388 
L 89.941837 79.469388 
L 86.741837 81.069388 
z
" clip-path="url(#pc0e53fe680)" style="fill: #4d4d4d; stroke: #4d4d4d; stroke-width: 1.2; stroke-linecap: round"/>
   </g>
   <g id="patch_16">
    <path d="M 164.535652 79.469388 
Q 169.325217 79.469388 172.773142 79.469388 
" clip-path="url(#pc0e53fe680)" style="fill: none; stroke: #4d4d4d; stroke-width: 1.2; stroke-linecap: round"/>
    <path d="M 169.573142 77.869388 
L 172.773142 79.469388 
L 169.573142 81.069388 
z
" clip-path="url(#pc0e53fe680)" style="fill: #4d4d4d; stroke: #4d4d4d; stroke-width: 1.2; stroke-linecap: round"/>
   </g>
   <g id="patch_17">
    <path d="M 247.366957 79.469388 
Q 252.156522 79.469388 255.604446 79.469388 
" clip-path="url(#pc0e53fe680)" style="fill: none; stroke: #4d4d4d; stroke-width: 1.2; stroke-linecap: round"/>
    <path d="M 252.404446 77.869388 
L 255.604446 79.469388 
L 252.404446 81.069388 
z
" clip-path="url(#pc0e53fe680)" style="fill: #4d4d4d; stroke: #4d4d4d; stroke-width: 1.2; stroke-linecap: round"/>
   </g>
   <g id="patch_18">
    <path d="M 330.198261 79.469388 
Q 334.987826 79.469388 338.435751 79.469388 
" clip-path="url(#pc0e53fe680)" style="fill: none; stroke: #4d4d4d; stroke-width: 1.2; stroke-linecap: round"/>
    <path d="M 335.235751 77.869388 
L 338.435751 79.469388 
L 335.235751 81.069388 
z
" clip-path="url(#pc0e53fe680)" style="fill: #4d4d4d; stroke: #4d4d4d; stroke-width: 1.2; stroke-linecap: round"/>
   </g>
   <g id="patch_19">
    <path d="M 413.029565 79.469388 
Q 417.81913 79.469388 421.267055 79.469388 
" clip-path="url(#pc0e53fe680)" style="fill: none; stroke: #4d4d4d; stroke-width: 1.2; stroke-linecap: round"/>
    <path d="M 418.067055 77.869388 
L 421.267055 79.469388 
L 418.067055 81.069388 
z
" clip-path="url(#pc0e53fe680)" style="fill: #4d4d4d; stroke: #4d4d4d; stroke-width: 1.2; stroke-linecap: round"/>
   </g>
   <g id="text_25">
    <text style="font-weight: 700; font-size: 5px; font-family: 'Arial', 'Helvetica', 'DejaVu Sans', sans-serif; text-anchor: start; fill: #d55e00" x="14.086957" y="133.026706" transform="rotate(-0 14.086957 133.026706)">falsified clauses</text>
   </g>
   <g id="text_26">
    <text style="font-size: 4.3px; font-family: 'Arial', 'Helvetica', 'DejaVu Sans', sans-serif; text-anchor: start; fill: #4d4d4d" x="14.086957" y="140.115699" transform="rotate(-0 14.086957 140.115699)">P2-1, P2-2, P3-3, P4-1 ...</text>
   </g>
   <g id="patch_20">
    <path d="M 87.33913 134.693878 
Q 93.255652 149.510204 98.881938 163.599713 
" clip-path="url(#pc0e53fe680)" style="fill: none; opacity: 0.8; stroke: #d55e00; stroke-width: 0.7; stroke-linecap: round"/>
    <path d="M 99.068931 161.371478 
L 98.881938 163.599713 
L 97.211546 162.113178 
z
" clip-path="url(#pc0e53fe680)" style="fill: #d55e00; opacity: 0.8; stroke: #d55e00; stroke-width: 0.7; stroke-linecap: round"/>
   </g>
   <g id="text_27">
    <text style="font-weight: 700; font-size: 5px; font-family: 'Arial', 'Helvetica', 'DejaVu Sans', sans-serif; text-anchor: start; fill: #d55e00" x="14.086957" y="154.544914" transform="rotate(-0 14.086957 154.544914)">rejected patches</text>
   </g>
   <g id="text_28">
    <text style="font-size: 4.3px; font-family: 'Arial', 'Helvetica', 'DejaVu Sans', sans-serif; text-anchor: start; fill: #4d4d4d" x="14.086957" y="161.673102" transform="rotate(-0 14.086957 161.673102)">NF-kB repair codes 12, 15</text>
   </g>
   <g id="patch_21">
    <path d="M 87.33913 156.244898 
Q 93.255652 160.285714 98.525896 163.885141 
" clip-path="url(#pc0e53fe680)" style="fill: none; opacity: 0.8; stroke: #d55e00; stroke-width: 0.7; stroke-linecap: round"/>
    <path d="M 97.438315 161.931384 
L 98.525896 163.885141 
L 96.310342 163.582951 
z
" clip-path="url(#pc0e53fe680)" style="fill: #d55e00; opacity: 0.8; stroke: #d55e00; stroke-width: 0.7; stroke-linecap: round"/>
   </g>
   <g id="text_29">
    <text style="font-weight: 700; font-size: 5px; font-family: 'Arial', 'Helvetica', 'DejaVu Sans', sans-serif; text-anchor: start; fill: #d55e00" x="14.086957" y="176.128747" transform="rotate(-0 14.086957 176.128747)">pipeline errors</text>
   </g>
   <g id="text_30">
    <text style="font-size: 4.3px; font-family: 'Arial', 'Helvetica', 'DejaVu Sans', sans-serif; text-anchor: start; fill: #4d4d4d" x="14.086957" y="183.21774" transform="rotate(-0 14.086957 183.21774)">chemotaxis codes 55, 57, 59</text>
   </g>
   <g id="patch_22">
    <path d="M 87.33913 177.795918 
Q 93.255652 171.061224 98.655643 164.91449 
" clip-path="url(#pc0e53fe680)" style="fill: none; opacity: 0.8; stroke: #d55e00; stroke-width: 0.7; stroke-linecap: round"/>
    <path d="M 96.58438 165.757026 
L 98.655643 164.91449 
L 98.086914 167.077022 
z
" clip-path="url(#pc0e53fe680)" style="fill: #d55e00; opacity: 0.8; stroke: #d55e00; stroke-width: 0.7; stroke-linecap: round"/>
   </g>
   <g id="patch_23">
    <path d="M 135.234783 164.326531 
Q 151.575652 164.326531 166.686684 164.326531 
" clip-path="url(#pc0e53fe680)" style="fill: none; stroke: #4d4d4d; stroke-width: 1.1; stroke-linecap: round"/>
    <path d="M 163.886684 162.926531 
L 166.686684 164.326531 
L 163.886684 165.726531 
z
" clip-path="url(#pc0e53fe680)" style="fill: #4d4d4d; stroke: #4d4d4d; stroke-width: 1.1; stroke-linecap: round"/>
   </g>
   <g id="text_31">
    <text style="font-weight: 700; font-size: 6px; font-family: 'Arial', 'Helvetica', 'DejaVu Sans', sans-serif; text-anchor: start; fill: #4d4d4d" x="176.086957" y="161.299439" transform="rotate(-0 176.086957 161.299439)">Double-recorded failure ledger</text>
   </g>
   <g id="text_32">
    <text style="font-size: 5px; font-family: 'Arial', 'Helvetica', 'DejaVu Sans', sans-serif; text-anchor: start; fill: #4d4d4d" x="176.086957" y="173.432526" transform="rotate(-0 176.086957 173.432526)">failures archived with the same discipline as hits; nothing deleted, corrections appended</text>
   </g>
   <g id="text_33">
    <text style="font-size: 4.5px; font-family: 'Arial', 'Helvetica', 'DejaVu Sans', sans-serif; fill: #4d4d4d" transform="translate(517.872886 145.83221) rotate(-90)">feeds the same archive</text>
   </g>
   <g id="patch_24">
    <path d="M 36.626087 78.930612 
L 53.530435 78.930612 
L 53.530435 63.844898 
L 36.626087 63.844898 
z
" clip-path="url(#pc0e53fe680)" style="fill: #ffffff; stroke: #4d4d4d; stroke-width: 0.8; stroke-linejoin: miter"/>
   </g>
   <g id="patch_25">
    <path d="M 48.45913 63.844898 
L 53.530435 63.844898 
L 53.530435 68.693878 
z
" clip-path="url(#pc0e53fe680)" style="fill: #ffffff; stroke: #4d4d4d; stroke-width: 0.8; stroke-linejoin: miter"/>
   </g>
   <g id="patch_26">
    <path d="M 119.457391 78.930612 
L 136.361739 78.930612 
L 136.361739 63.844898 
L 119.457391 63.844898 
z
" clip-path="url(#pc0e53fe680)" style="fill: #ffffff; stroke: #4d4d4d; stroke-width: 0.8; stroke-linejoin: miter"/>
   </g>
   <g id="line2d_2">
    <path d="M 216.375652 71.926531 
L 219.474783 71.926531 
" clip-path="url(#pc0e53fe680)" style="fill: none; stroke: #4d4d4d; stroke-linecap: round"/>
   </g>
   <g id="line2d_3">
    <path d="M 214.725263 68.116812 
L 216.916679 66.021467 
" clip-path="url(#pc0e53fe680)" style="fill: none; stroke: #4d4d4d; stroke-linecap: round"/>
   </g>
   <g id="line2d_4">
    <path d="M 210.74087 66.538776 
L 210.74087 63.57551 
" clip-path="url(#pc0e53fe680)" style="fill: none; stroke: #4d4d4d; stroke-linecap: round"/>
   </g>
   <g id="line2d_5">
    <path d="M 206.756477 68.116812 
L 204.56506 66.021467 
" clip-path="url(#pc0e53fe680)" style="fill: none; stroke: #4d4d4d; stroke-linecap: round"/>
   </g>
   <g id="line2d_6">
    <path d="M 205.106087 71.926531 
L 202.006957 71.926531 
" clip-path="url(#pc0e53fe680)" style="fill: none; stroke: #4d4d4d; stroke-linecap: round"/>
   </g>
   <g id="line2d_7">
    <path d="M 206.756477 75.736249 
L 204.56506 77.831594 
" clip-path="url(#pc0e53fe680)" style="fill: none; stroke: #4d4d4d; stroke-linecap: round"/>
   </g>
   <g id="line2d_8">
    <path d="M 210.74087 77.314286 
L 210.74087 80.277551 
" clip-path="url(#pc0e53fe680)" style="fill: none; stroke: #4d4d4d; stroke-linecap: round"/>
   </g>
   <g id="line2d_9">
    <path d="M 214.725263 75.736249 
L 216.916679 77.831594 
" clip-path="url(#pc0e53fe680)" style="fill: none; stroke: #4d4d4d; stroke-linecap: round"/>
   </g>
   <g id="patch_27">
    <path d="M 210.74087 77.314286 
C 212.235231 77.314286 213.668589 76.746598 214.725263 75.736249 
C 215.781936 74.7259 216.375652 73.35538 216.375652 71.926531 
C 216.375652 70.497681 215.781936 69.127162 214.725263 68.116812 
C 213.668589 67.106463 212.235231 66.538776 210.74087 66.538776 
C 209.246508 66.538776 207.81315 67.106463 206.756477 68.116812 
C 205.699803 69.127162 205.106087 70.497681 205.106087 71.926531 
C 205.106087 73.35538 205.699803 74.7259 206.756477 75.736249 
C 207.81315 76.746598 209.246508 77.314286 210.74087 77.314286 
z
" clip-path="url(#pc0e53fe680)" style="fill: #ffffff; stroke: #4d4d4d; stroke-width: 0.9; stroke-linejoin: miter"/>
   </g>
   <g id="patch_28">
    <path d="M 285.12 78.930612 
L 302.024348 78.930612 
L 302.024348 63.844898 
L 285.12 63.844898 
z
" clip-path="url(#pc0e53fe680)" style="fill: #ffffff; stroke: #4d4d4d; stroke-width: 0.8; stroke-linejoin: miter"/>
   </g>
   <g id="patch_29">
    <path d="M 296.953043 63.844898 
L 302.024348 63.844898 
L 302.024348 68.693878 
z
" clip-path="url(#pc0e53fe680)" style="fill: #ffffff; stroke: #4d4d4d; stroke-width: 0.8; stroke-linejoin: miter"/>
   </g>
   <g id="patch_30">
    <path d="M 367.951304 78.930612 
L 384.855652 78.930612 
L 384.855652 63.844898 
L 367.951304 63.844898 
z
" clip-path="url(#pc0e53fe680)" style="fill: #ffffff; stroke: #4d4d4d; stroke-width: 0.8; stroke-linejoin: miter"/>
   </g>
   <g id="patch_31">
    <path d="M 379.784348 63.844898 
L 384.855652 63.844898 
L 384.855652 68.693878 
z
" clip-path="url(#pc0e53fe680)" style="fill: #ffffff; stroke: #4d4d4d; stroke-width: 0.8; stroke-linejoin: miter"/>
   </g>
   <g id="patch_32">
    <path d="M 459.234783 78.122449 
C 461.625762 78.122449 463.919134 77.639914 465.609811 76.781118 
C 467.300489 75.922321 468.250435 74.757379 468.250435 73.542857 
C 468.250435 72.328335 467.300489 71.163393 465.609811 70.304597 
C 463.919134 69.4458 461.625762 68.963265 459.234783 68.963265 
C 456.843804 68.963265 454.550431 69.4458 452.859754 70.304597 
C 451.169076 71.163393 450.21913 72.328335 450.21913 73.542857 
C 450.21913 74.757379 451.169076 75.922321 452.859754 76.781118 
C 454.550431 77.639914 456.843804 78.122449 459.234783 78.122449 
z
" clip-path="url(#pc0e53fe680)" style="fill: #ffffff; stroke: #4d4d4d; stroke-width: 0.8; stroke-linejoin: miter"/>
   </g>
   <g id="patch_33">
    <path d="M 458.47943 67.525587 
C 457.819652 66.940259 456.966761 66.535066 456.031427 66.362586 
C 455.096092 66.190106 454.1206 66.258136 453.231531 66.557849 
C 452.342462 66.857562 451.580008 67.375408 451.043107 68.044191 
C 450.506206 68.712974 450.21913 69.50246 450.21913 70.310204 
" clip-path="url(#pc0e53fe680)" style="fill: none; stroke: #4d4d4d; stroke-width: 0.8; stroke-linejoin: miter"/>
   </g>
   <g id="patch_34">
    <path d="M 467.968696 69.771429 
C 467.968696 68.853272 467.645941 67.955993 467.042552 67.196689 
C 466.439163 66.437385 465.582581 65.850587 464.584591 65.512874 
C 463.586601 65.17516 462.49259 65.10189 461.445328 65.302625 
C 460.398066 65.503359 459.445181 65.96897 458.711026 66.638693 
" clip-path="url(#pc0e53fe680)" style="fill: none; stroke: #4d4d4d; stroke-width: 0.8; stroke-linejoin: miter"/>
   </g>
   <g id="line2d_10">
    <path d="M 40.006957 70.310204 
L 46.768696 70.310204 
" clip-path="url(#pc0e53fe680)" style="fill: none; stroke: #999999; stroke-width: 0.7; stroke-linecap: round"/>
   </g>
   <g id="line2d_11">
    <path d="M 40.006957 73.812245 
L 46.768696 73.812245 
" clip-path="url(#pc0e53fe680)" style="fill: none; stroke: #999999; stroke-width: 0.7; stroke-linecap: round"/>
   </g>
   <g id="line2d_12">
    <path d="M 127.909565 78.930612 
L 127.909565 63.844898 
" clip-path="url(#pc0e53fe680)" style="fill: none; stroke: #4d4d4d; stroke-width: 0.6; stroke-linecap: round"/>
   </g>
   <g id="line2d_13">
    <path d="M 119.457391 74.081633 
L 136.361739 74.081633 
" clip-path="url(#pc0e53fe680)" style="fill: none; stroke: #4d4d4d; stroke-width: 0.6; stroke-linecap: round"/>
   </g>
   <g id="line2d_14">
    <path d="M 119.457391 69.232653 
L 136.361739 69.232653 
" clip-path="url(#pc0e53fe680)" style="fill: none; stroke: #4d4d4d; stroke-width: 0.6; stroke-linecap: round"/>
   </g>
   <g id="patch_35">
    <path d="M 210.74087 74.081633 
C 211.338614 74.081633 211.911957 73.854558 212.334627 73.450418 
C 212.757296 73.046278 212.994783 72.49807 212.994783 71.926531 
C 212.994783 71.354991 212.757296 70.806783 212.334627 70.402643 
C 211.911957 69.998504 211.338614 69.771429 210.74087 69.771429 
C 210.143125 69.771429 209.569782 69.998504 209.147112 70.402643 
C 208.724443 70.806783 208.486957 71.354991 208.486957 71.926531 
C 208.486957 72.49807 208.724443 73.046278 209.147112 73.450418 
C 209.569782 73.854558 210.143125 74.081633 210.74087 74.081633 
z
" clip-path="url(#pc0e53fe680)" style="fill: #4d4d4d"/>
   </g>
   <g id="line2d_15">
    <path d="M 288.50087 70.310204 
L 295.262609 70.310204 
" clip-path="url(#pc0e53fe680)" style="fill: none; stroke: #999999; stroke-width: 0.7; stroke-linecap: round"/>
   </g>
   <g id="line2d_16">
    <path d="M 288.50087 73.812245 
L 295.262609 73.812245 
" clip-path="url(#pc0e53fe680)" style="fill: none; stroke: #999999; stroke-width: 0.7; stroke-linecap: round"/>
   </g>
   <g id="line2d_17">
    <path d="M 371.332174 70.310204 
L 378.093913 70.310204 
" clip-path="url(#pc0e53fe680)" style="fill: none; stroke: #999999; stroke-width: 0.7; stroke-linecap: round"/>
   </g>
   <g id="line2d_18">
    <path d="M 371.332174 73.812245 
L 378.093913 73.812245 
" clip-path="url(#pc0e53fe680)" style="fill: none; stroke: #999999; stroke-width: 0.7; stroke-linecap: round"/>
   </g>
   <g id="patch_36">
    <path d="M 367.951304 83.510204 
L 384.855652 83.510204 
L 384.855652 78.930612 
L 367.951304 78.930612 
z
" clip-path="url(#pc0e53fe680)" style="fill: #d55e00; opacity: 0.3; stroke: #d55e00; stroke-width: 0.6; stroke-linejoin: miter"/>
   </g>
   <g id="line2d_19">
    <path d="M 289.627826 70.310204 
L 293.008696 74.189388 
L 298.643478 66.43102 
" clip-path="url(#pc0e53fe680)" style="fill: none; stroke: #009e73; stroke-width: 1.5; stroke-linecap: round"/>
   </g>
   <g id="text_34">
    <text style="font-weight: 700; font-size: 5px; font-family: 'Arial', 'Helvetica', 'DejaVu Sans', sans-serif; text-anchor: middle; fill: #d55e00" x="376.403478" y="82.516502" transform="rotate(-0 376.403478 82.516502)">+</text>
   </g>
   <g id="line2d_20">
    <path d="M 456.135652 71.118367 
L 458.671304 74.027755 
L 462.897391 68.20898 
" clip-path="url(#pc0e53fe680)" style="fill: none; stroke: #009e73; stroke-width: 1.2; stroke-linecap: round"/>
   </g>
  </g>
 </g>
 <defs>
  <clipPath id="pc0e53fe680">
   <rect x="0" y="0" width="518.4" height="198"/>
  </clipPath>
 </defs>
</svg>
